<?xml version="1.0" encoding="utf-8"?>
<!-- Generator: Adobe Illustrator 26.2.1, SVG Export Plug-In . SVG Version: 6.00 Build 0)  -->
<svg version="1.1" id="Layer_1" xmlns="http://www.w3.org/2000/svg" xmlns:xlink="http://www.w3.org/1999/xlink" x="0px" y="0px"
	 viewBox="0 0 283.6 283.6" style="enable-background:new 0 0 283.6 283.6;" xml:space="preserve">
<style type="text/css">
	.st0{fill:none;}
	.st1{fill:#238EAC;}
	.st2{fill:#239E92;}
	.st3{fill:#2669BF;}
	.st4{fill:#23B469;}
	.st5{fill:#7B00FF;}
</style>
<g>
	<path class="st0" d="M46.1,175.3v10.6v51.6h119.8h8.6h32.3h8h22.6v-72.4v-2.3V121V116V46.1H106.4h-20H46.1V175.3z M129.6,114.7
		c3.7-1.7,7.9-2.7,12.2-2.7c15.7,0,28.6,12.3,29.7,27.7c0,0.7,0.1,1.4,0.1,2c0,9.1-4.1,17.3-10.6,22.7c-5.2,4.4-11.9,7-19.2,7
		c-11.4,0-21.3-6.5-26.3-15.9c-2.2-4.1-3.4-8.8-3.4-13.8C112,129.8,119.3,119.4,129.6,114.7z"/>
	<polygon class="st1" points="46.1,46.1 86.4,46.1 57.4,0 0,0 0,188.4 46.1,175.3 	"/>
	<polygon class="st2" points="174.6,237.5 135.8,283.6 235.9,283.6 206.9,237.5 	"/>
	<polygon class="st3" points="237.5,162.8 283.6,107.9 237.5,121 	"/>
	<polygon class="st4" points="237.5,165.1 237.5,237.5 214.9,237.5 206.9,237.5 235.9,283.6 246.3,283.6 283.6,283.6 283.6,111.4 
		283.6,107.9 237.5,162.8 	"/>
	<polygon class="st3" points="165.9,237.5 46.1,237.5 46.1,185.9 46.1,175.3 0,188.4 0,199 0,283.6 130.5,283.6 135.8,283.6 
		174.6,237.5 	"/>
	<path class="st2" d="M141.8,171.6c7.3,0,14-2.6,19.2-7c6.5-5.5,10.6-13.6,10.6-22.7c0-0.7-0.1-1.4-0.1-2
		c-1.1-15.5-13.9-27.7-29.7-27.7c-4.4,0-8.5,1-12.2,2.7c-10.3,4.7-17.5,15.1-17.5,27.1c0,5,1.3,9.7,3.4,13.8
		C120.5,165.1,130.4,171.6,141.8,171.6z"/>
	<polygon class="st5" points="77.4,0 57.4,0 86.4,46.1 106.4,46.1 237.5,46.1 237.5,116 237.5,121 283.6,107.9 283.6,105.1 283.6,0 
			"/>
</g>
</svg>
